<?xml version="1.0" encoding="UTF-8"?>
<!-- Open Graph / social link-preview card (1200x630): white "GÜIZ" wordmark
     on brand navy + tagline. Source for web/og-image.png. Derived from
     assets/icons/QuizLogo-01.svg (bubble inverted to white, letters to navy). -->
<svg xmlns="http://www.w3.org/2000/svg" viewBox="0 0 1200 630">
  <rect width="1200" height="630" fill="#1F3A5F"/>
  <g transform="translate(315.5,110) scale(5.69)">
    <path fill="#FFFFFF" d="M66.51,46.87l-2.73-8.96c-1.11-1.11-1.11-2.9,0-4l4.96-6.96c1.11-1.11,2.9-1.11,4,0l6.96,6.96c1.11,1.11,1.11,2.9,0,4l-9.2,8.96c-1.11,1.11-2.9,1.11-4,0Z"/>
    <path fill="#FFFFFF" d="M84.47,40.21H10.93c-3.67,0-6.64-2.89-6.64-6.46L8.89,8.77c0-3.57,2.97-6.46,6.64-6.46H89.07c3.67,0,6.64,2.89,6.64,6.46l-4.6,24.98c0,3.57-2.97,6.46-6.64,6.46Z"/>
    <path fill="#1F3A5F" d="M26.05,29.1l-1.27,.02c-2.2,0-3.93-.61-5.2-1.82-1.26-1.21-1.89-2.86-1.89-4.96,0-3.24,1.17-6.06,3.5-8.45,2.33-2.39,5.08-3.58,8.25-3.58,2.21,0,3.94,.59,5.18,1.78s1.87,2.84,1.87,4.95c0,2.65-.79,5.05-2.37,7.19-1.58,2.14-3.66,3.65-6.26,4.52,1.27,.78,2.59,1.37,3.99,1.76s2.84,.59,4.36,.59c.86,0,1.63-.09,2.32-.27-.85,1.02-1.5,1.68-1.96,1.98-.46,.29-1.06,.44-1.79,.44-1.27,0-2.63-.35-4.08-1.05-1.46-.7-3.01-1.74-4.65-3.13Zm-.62-1.17c1.96,0,3.64-1.09,5.03-3.26s2.09-4.79,2.09-7.83c0-1.77-.31-3.09-.93-3.97-.62-.88-1.56-1.32-2.81-1.32-1.98,0-3.67,1.09-5.06,3.26-1.39,2.17-2.09,4.81-2.09,7.92,0,1.73,.32,3.03,.94,3.9s1.57,1.3,2.82,1.3Z"/>
    <path fill="#1F3A5F" d="M39.69,11.89l.22-1.12h7.62l-.23,1.12h-.22c-.86,.08-1.37,.2-1.54,.39-.17,.19-.39,.86-.65,2.01l-1.62,8.14c-.12,.61-.18,1.2-.18,1.76,0,1.23,.28,2.15,.83,2.77,.56,.61,1.39,.92,2.5,.92,1.44,0,2.62-.49,3.54-1.46,.91-.97,1.57-2.43,1.95-4.36l1.55-7.79c.07-.43,.15-.94,.24-1.55,0-.46-.5-.73-1.49-.81h-.23s.23-1.14,.23-1.14h5.67l-.22,1.12h-.22c-.86,.08-1.38,.2-1.54,.39-.17,.19-.39,.85-.66,2.01l-1.45,7.26c-.52,2.64-1.42,4.56-2.69,5.77-1.27,1.21-3.04,1.81-5.29,1.81-1.94,0-3.49-.47-4.65-1.41-1.17-.94-1.75-2.19-1.75-3.76,0-.69,.09-1.49,.28-2.42l1.45-7.27c.07-.43,.16-.94,.25-1.55,0-.48-.5-.75-1.49-.81-.06,0-.13,0-.23-.01Z"/>
    <path fill="#1F3A5F" d="M63.33,28.67h-7.62l.22-1.12h.23c.86-.07,1.37-.19,1.54-.37,.17-.18,.39-.85,.65-2.01l2.17-10.9,.27-1.54c0-.47-.5-.74-1.51-.82h-.22s.23-1.14,.23-1.14h7.62l-.23,1.12h-.22c-.87,.08-1.39,.2-1.56,.37-.17,.18-.38,.84-.63,2l-2.18,10.9c-.17,1-.25,1.52-.25,1.56,0,.48,.5,.75,1.5,.81h.23s-.23,1.14-.23,1.14Z"/>
    <path fill="#1F3A5F" d="M65.62,28.67l.19-1.34,12.07-15.38h-4.64c-.85,.05-1.36,.11-1.54,.2-.18,.08-.32,.34-.42,.76-.13,.5-.23,.88-.29,1.14l-.05,.22h-1.79l.7-3.5h12.69l-.24,1.19-12.11,15.38h5.01c1.09,0,1.79-.06,2.09-.19,.31-.12,.51-.43,.62-.91,.14-.53,.22-.86,.24-.99l.06-.22h1.79l-.73,3.65h-13.66Z"/>
  </g>
  <text x="600" y="500" text-anchor="middle" font-family="Arial, Helvetica, sans-serif" font-size="46" font-weight="600" letter-spacing="2" fill="#FFFFFF">Learn Languages</text>
</svg>
