<?xml version="1.0" encoding="UTF-8"?>
<svg id="Layer_1" data-name="Layer 1" xmlns="http://www.w3.org/2000/svg" viewBox="0 0 50 50">
  <path fill="#231f20" d="M26.16,46.87l-2.73-8.96c-1.11-1.11-1.11-2.9,0-4l4.96-6.96c1.11-1.11,2.9-1.11,4,0l6.96,6.96c1.11,1.11,1.11,2.9,0,4l-9.2,8.96c-1.11,1.11-2.9,1.11-4,0Z"/>
  <path fill="#231f20" d="M37.47,40.21H10.93c-3.67,0-6.64-2.89-6.64-6.46L8.89,8.77c0-3.57,2.97-6.46,6.64-6.46h26.53c3.67,0,6.64,2.89,6.64,6.46l-4.6,24.98c0,3.57-2.97,6.46-6.64,6.46Z"/>
  <path fill="#fff" d="M24.26,30.54l-1.59,.03c-2.75,0-4.92-.76-6.49-2.27s-2.37-3.58-2.37-6.2c0-4.05,1.46-7.57,4.38-10.55,2.92-2.98,6.35-4.47,10.3-4.47,2.76,0,4.92,.74,6.48,2.23,1.56,1.49,2.34,3.55,2.34,6.19,0,3.32-.99,6.31-2.96,8.99-1.97,2.68-4.58,4.56-7.82,5.65,1.58,.98,3.24,1.71,4.98,2.2,1.74,.49,3.55,.73,5.45,.73,1.07,0,2.04-.11,2.9-.33-1.06,1.28-1.87,2.1-2.45,2.47-.57,.37-1.32,.55-2.24,.55-1.58,0-3.28-.44-5.1-1.31-1.82-.87-3.76-2.17-5.81-3.91Zm-.77-1.47c2.45,0,4.54-1.36,6.29-4.07,1.74-2.72,2.62-5.98,2.62-9.79,0-2.21-.39-3.86-1.16-4.96-.78-1.1-1.95-1.65-3.51-1.65-2.48,0-4.59,1.36-6.33,4.07-1.74,2.72-2.61,6.01-2.61,9.89,0,2.17,.39,3.79,1.18,4.87,.79,1.08,1.96,1.62,3.52,1.62Z"/>
</svg>
